<svg xmlns="http://www.w3.org/2000/svg" viewBox="0 0 486 400" version="1.1"><path d="M 74.693 0.750 C 74.459 1.163, 73.334 4.425, 72.193 8 C 71.052 11.575, 58.422 50.050, 44.125 93.500 C -2.034 233.785, 2.564 218.980, 4.239 221.917 C 5.050 223.338, 11.917 235.883, 19.498 249.796 C 35.105 278.435, 26.157 297.263, 91.510 98.280 C 106.905 51.408, 119.737 13.046, 120.028 13.030 C 120.318 13.013, 126.751 28.188, 134.323 46.750 C 141.894 65.313, 148.890 82.300, 149.867 84.500 C 151.728 88.686, 151.343 90.383, 142.445 117.250 C 141.908 118.871, 143.124 119, 158.933 119 C 168.320 119, 176 119.399, 176 119.886 C 176 120.567, 143.033 217.997, 126.315 266.726 C 123.835 273.952, 123.835 273.952, 107.250 274.226 C 70.202 274.838, 63.129 354.960, 96.918 391.265 C 97.310 391.686, 118.193 329.586, 143.327 253.265 C 168.460 176.944, 197.509 88.737, 207.879 57.250 C 223.226 10.654, 98.961 -42.061, 74.693 0.750 M 283.064 2.332 C 270.661 34.953, 244.519 120, 246.895 120 C 268.808 120, 272.953 132.930, 261.880 166.746 C 251.223 199.292, 244.166 207.299, 222.285 211.670 C 218.003 212.525, 214.187 213.512, 213.804 213.862 C 213.422 214.213, 199.595 255.499, 183.077 305.610 C 166.559 355.720, 152.762 397.458, 152.415 398.360 C 151.843 399.853, 153.993 400, 176.352 400 C 200.919 400, 200.919 400, 228.523 316.250 C 243.705 270.188, 261.948 214.950, 269.063 193.500 C 276.178 172.050, 282 154.162, 282 153.750 C 282 153.337, 279.027 153, 275.393 153 C 270.529 153, 268.907 152.670, 269.246 151.750 C 269.499 151.063, 272.059 143.412, 274.936 134.750 C 280.166 119, 280.166 119, 286.863 119 C 293.560 119, 293.560 119, 313.145 59.500 C 329.457 9.944, 300.844 -44.434, 283.064 2.332 M 386.095 11.250 C 384.536 15.351, 351 117.699, 351 118.356 C 351 118.710, 355.050 119, 360 119 C 364.950 119, 369 119.390, 369 119.866 C 369 121.569, 358.849 150.477, 357.813 151.726 C 357.103 152.581, 353.865 153, 347.959 153 C 339.163 153, 339.163 153, 337.145 159.250 C 332.839 172.591, 259.033 396.751, 258.427 398.329 C 257.831 399.882, 263.313 400, 335.795 400 C 413.804 400, 413.804 400, 414.970 396.750 C 418.205 387.729, 484 187.433, 484 186.605 C 484 185.650, 467.816 155.191, 465.443 151.679 C 464.337 150.042, 463.964 150.397, 461.767 155.179 C 460.422 158.105, 447.597 185.475, 433.265 216 C 407.209 271.500, 407.209 271.500, 391.966 318 C 383.582 343.575, 376.565 364.050, 376.372 363.500 C 375.019 359.646, 349 248.048, 349 246.099 C 349 244.746, 350.376 236.407, 352.057 227.569 C 357.865 197.038, 372.123 123.493, 372.669 121.250 C 373.204 119.053, 373.540 119, 386.879 119 C 413.634 119, 422.689 73.238, 403.076 37.140 C 386.585 6.788, 387.349 7.952, 386.095 11.250" stroke="none" fill="#ffcc00" fill-rule="evenodd"/></svg>